<?xml version="1.0" encoding="UTF-8"?>
<svg width="auto" height="235px" viewBox="0 0 115 35" version="1.1" xmlns="http://www.w3.org/2000/svg" xmlns:xlink="http://www.w3.org/1999/xlink">
    <!-- Generator: Sketch 55 (78076) - https://sketchapp.com -->
    <title>Stay22 logo</title>
    <desc>Created with Sketch.</desc>
    <g id="Page-1" stroke="none" stroke-width="1" fill="none" fill-rule="evenodd">
        <g id="sign" transform="translate(-18.000000, -32.000000)" fill="#293BFF" fill-rule="nonzero">
            <path d="M130.988949,53.5098292 C121.878577,53.308966 116.968222,53.308966 116.257881,53.5098292 C115.192371,53.811124 111.9569,58.7915976 111.16882,58.7764699 C110.380741,58.7613422 107.393313,53.8169373 106.253136,53.5098292 C105.493018,53.3050904 100.666457,53.3050904 91.7734532,53.5098292 C90.6627803,53.5098292 89.7624021,52.6167475 89.7624021,51.5150754 L89.7624021,33.9947538 C89.7624021,32.8930817 90.6627803,32 91.7734532,32 L130.988949,32 C132.099622,32 133,32.8930817 133,33.9947538 L133,51.5158733 C132.999556,52.6172338 132.099308,53.5098293 130.988949,53.5098292 Z M109.073721,38.4191177 C110.061549,38.4191177 110.865165,39.0797802 110.865165,39.891645 C110.865165,40.5766434 110.329421,41.4284033 109.273217,42.4225886 L104.856949,46.5716765 L104.856949,48.4020626 L113.54469,48.4020626 L113.54469,46.0482531 L108.677946,46.0482531 L110.795985,44.0566909 C112.54922,42.4608879 113.438104,41.0278567 113.438104,39.8014821 C113.437772,38.7771712 112.972249,37.8075089 112.17074,37.1616249 C111.310794,36.4288963 110.207008,36.0393036 109.073721,36.0684998 C107.10806,36.0498439 105.326583,37.2132044 104.566956,39.0115596 L106.865185,40.1062805 C107.313649,39.0183418 108.097959,38.4191177 109.075732,38.4191177 L109.073721,38.4191177 Z M98.9561231,38.4191177 C99.9439514,38.4191177 100.74797,39.0797802 100.74797,39.891645 C100.74797,40.5758455 100.212226,41.4276054 99.1560216,42.4225886 L94.7397535,46.5716765 L94.7397535,48.4020626 L103.427494,48.4020626 L103.427494,46.0482531 L98.5607505,46.0482531 L100.678789,44.0566909 C102.432024,42.4608879 103.320908,41.0278567 103.320908,39.8014821 C103.320577,38.7771712 102.855053,37.8075089 102.053544,37.1616249 C101.193579,36.4289299 100.089806,36.0393419 98.9565254,36.0684998 C96.991529,36.0504398 95.2109446,37.2137365 94.451771,39.0115596 L96.7500001,40.1062805 C97.1980623,39.0183418 97.9823722,38.4191177 98.9581342,38.4191177 L98.9561231,38.4191177 Z M69.6131175,67 L69.6098867,67 C69.3101013,66.9854196 69.0290526,66.8510167 68.8308449,66.6274472 C68.6289159,66.3742716 68.5445096,65.3691802 68.523509,65.0651291 C68.4891811,64.5744009 68.4584879,63.7103188 68.6418394,63.4339087 C68.9204585,63.1426139 69.3188094,62.9948458 69.7217553,63.0333143 C69.779507,63.0333143 69.8207005,63.0333143 69.8372587,63.0361184 C71.6748119,63.0361184 72.7143421,62.1580155 73.6714852,59.8053246 L74.6912263,57.2791764 C74.1476337,55.9271703 68.0740152,40.8147466 67.9548771,40.4141522 C67.9288439,40.3250527 67.9477964,40.228967 68.0057632,40.1561694 C68.2525204,39.8284832 69.3841301,39.6810645 70.1086511,39.6810645 C70.7677472,39.6810645 71.5940404,39.7860202 71.7858729,40.2855614 C72.0637271,41.0090349 75.8612026,50.1021271 76.7622095,52.2589274 C77.6353502,50.084501 81.2401855,41.1224031 81.7042182,40.2627275 C81.9893418,39.7335423 82.7712107,39.6217765 83.3774013,39.6217765 C84.1620971,39.6217765 85.1543759,39.8220737 85.3934598,40.1425492 C85.4549713,40.2202411 85.4744159,40.3228086 85.4455574,40.417357 C85.3138998,40.8319722 77.527924,60.366958 77.1963567,61.1973902 L77.1963567,61.2001943 C76.3321008,63.2792792 75.4032278,64.6673388 74.2736373,65.5694774 C73.0620637,66.5381147 71.5811169,66.9923887 69.6171561,66.9991988 L69.6131175,67 Z M33.5389583,43.5507458 C33.2525538,43.5211008 33.4852322,40.3506925 33.9429137,40.3458852 C34.4005953,40.3410779 36.2858554,40.3458852 36.2858554,40.3458852 C36.2858554,40.3458852 36.2834317,37.1598532 36.2858554,37.0180381 C36.2882792,36.8762231 39.9618502,36.1511234 39.9618502,36.7404171 C39.9618502,37.3297108 39.9618502,40.3458852 39.9618502,40.3458852 C39.9618502,40.3458852 44.1549079,40.3222494 44.6477336,40.3458852 C45.1405592,40.3695211 44.8650616,43.5507458 44.6477336,43.5507458 L39.9618502,43.5507458 L39.9618502,52.4041731 C39.9380806,53.0490775 40.1775882,53.6762326 40.6261763,54.1437235 C41.0747644,54.6112143 41.6945146,54.8795246 42.3451874,54.8879401 C42.8506205,54.9044262 43.356595,54.8910489 43.8604244,54.8478793 C44.3245692,54.7801766 44.8501152,54.5197817 44.852539,55.0361649 C44.8549627,55.552548 44.9191916,57.4209817 44.852539,57.8864877 C44.7858863,58.3519937 42.1028141,58.3732259 42.1028141,58.3732259 C40.5628183,58.4145672 39.0682534,57.8533541 37.9420728,56.8108564 C36.862389,55.7717463 36.2631206,54.3367249 36.2858554,52.8448414 L36.2858554,43.5507458 C36.2858554,43.5507458 33.8253627,43.5803908 33.5389583,43.5507458 Z M65.1875747,58.6583528 C65.0142136,58.7418321 64.8129323,58.7835827 64.6104784,58.7755215 C63.7612513,58.7096714 62.9257988,58.5249748 62.1287741,58.2270439 L62.1287741,56.0810662 L61.4921074,56.6338027 C59.9595441,57.9643318 57.9860532,58.6829781 55.9523929,58.6511541 C54.7718093,58.6624174 53.6112245,58.4335616 52.533247,57.9788261 C51.4742341,57.5110606 50.5151508,56.8326171 49.7188699,55.9863241 C48.0510076,54.1839509 47.156764,51.800848 47.2295305,49.348739 L47.2295312,49.3263485 C47.1569596,46.8750592 48.0507438,44.4927613 49.7198726,42.6883705 C50.5139427,41.8444472 51.4730261,41.1660037 52.5379459,40.6956881 C53.6104355,40.2426053 54.7714352,40.0130929 55.9427567,40.023938 C57.9860532,39.9920832 59.9595441,40.7107295 61.4921074,42.0412586 L62.1287741,42.5939951 L62.1287741,40.4766485 C62.8041653,40.3752983 63.4867811,40.3179218 64.1710299,40.3051055 C64.4957754,40.2958366 64.8165028,40.329314 65.1285364,40.404562 C65.3588877,40.4709865 65.4115129,40.5356125 65.4123857,40.6177553 C65.4186776,41.264441 65.4353899,45.8628687 65.4397468,49.2128357 C65.4464206,54.3441186 65.4312074,57.735943 65.3883593,58.3356385 C65.3819399,58.478447 65.3054985,58.597561 65.1875747,58.6583528 Z M52.5473359,53.3663298 C53.5235797,54.4220085 54.9073307,55.0115212 56.3490167,54.9859415 C57.7798761,55.0211636 59.154087,54.4294433 60.107611,53.3675316 C61.147733,52.2855825 61.7084702,50.8339891 61.6643632,49.3375307 C61.7083562,47.8423772 61.1485622,46.3919828 60.110027,45.3103339 C59.156474,44.2467343 57.7811616,43.6538947 56.3490167,43.6891198 C54.9078261,43.6641033 53.524743,44.2537271 52.5489466,45.3091321 C51.5365071,46.4048178 50.9929805,47.8497962 51.0336701,49.3375307 C50.9929805,50.8252651 51.5365071,52.2702435 52.5489466,53.3659292 L52.5473359,53.3663298 Z M31.9890005,44.4209314 C32.1584049,45.1695006 28.6457911,45.2090884 28.592827,45.0207464 C28.4987226,44.7461118 28.3655842,44.4861185 28.1974153,44.2485846 C27.5109031,43.4028454 26.4904338,43.021363 25.0349309,43.021363 C23.2964135,43.021363 22.0026331,43.7811287 22.0026331,44.9407711 C22.0026331,45.7005368 22.6090927,46.3003518 23.7815811,46.7402162 L27.8650755,48.1397846 C30.816512,49.1794639 32.3124456,50.8989337 32.3124456,53.2981938 C32.3124456,56.8570962 29.3610091,58.7765043 25.3179454,58.7765043 C21.1535897,58.7765043 18.4851676,56.8171086 18,53.7380581 C18,53.7380581 21.3290587,52.7679573 21.4770348,53.2182184 C21.5612508,53.5620918 21.7079738,53.8879578 21.9100469,54.1799218 C22.6495233,55.0800442 23.8559735,55.5774908 25.3988066,55.5774908 C27.3394772,55.5774908 28.8354108,54.7377498 28.8354108,53.4181568 C28.8354108,52.5384281 28.1076593,51.8586377 26.6117257,51.338798 L22.568662,50.019205 C19.778948,49.0595009 18.4851676,47.5799572 18.4851676,45.2206848 C18.4851676,41.6617823 21.3153123,39.8223496 25.3179454,39.8223496 C28.5503748,39.8223496 30.866646,41.1511398 31.6655554,43.2464936 C31.8145695,43.6257183 31.922977,44.0193488 31.9890005,44.4209314 Z" id="Stay22-logo"></path>
        </g>
    </g>
</svg>
